<?xml version="1.0" encoding="UTF-8"?><svg xmlns="http://www.w3.org/2000/svg" xmlns:xlink="http://www.w3.org/1999/xlink" viewBox="0 0 980 980"><defs><style>.cls-1{fill:url(#radial-gradient);filter:url(#drop-shadow-2);}.cls-1,.cls-2{stroke:#fff;stroke-miterlimit:10;stroke-width:48px;}.cls-3{fill:#f2f2f2;}.cls-2{fill:url(#radial-gradient-2);filter:url(#drop-shadow-3);}.cls-4{fill:url(#linear-gradient);filter:url(#drop-shadow-1);}</style><linearGradient id="linear-gradient" x1="490" y1="12.5" x2="490" y2="961.5" gradientTransform="translate(3 977) rotate(-90)" gradientUnits="userSpaceOnUse"><stop offset=".49" stop-color="#ff6339"/><stop offset="1" stop-color="#ff3a66"/></linearGradient><filter id="drop-shadow-1" filterUnits="userSpaceOnUse"><feOffset dx="0" dy="3"/><feGaussianBlur result="blur" stdDeviation="5"/><feFlood flood-color="#000" flood-opacity=".66"/><feComposite in2="blur" operator="in"/><feComposite in="SourceGraphic"/></filter><radialGradient id="radial-gradient" cx="645.82" cy="338.73" fx="645.82" fy="338.73" r="146.41" gradientTransform="matrix(1, 0, 0, 1, 0, 0)" gradientUnits="userSpaceOnUse"><stop offset=".65" stop-color="#ff675c"/><stop offset=".69" stop-color="#ff6c61"/><stop offset=".75" stop-color="#ff7b72"/><stop offset=".81" stop-color="#ff948d"/><stop offset=".89" stop-color="#ffb7b2"/><stop offset=".96" stop-color="#ffe4e2"/><stop offset="1" stop-color="#fff"/></radialGradient><filter id="drop-shadow-2" filterUnits="userSpaceOnUse"><feOffset dx="0" dy="8"/><feGaussianBlur result="blur-2" stdDeviation="29"/><feFlood flood-color="#000" flood-opacity=".56"/><feComposite in2="blur-2" operator="in"/><feComposite in="SourceGraphic"/></filter><radialGradient id="radial-gradient-2" cx="435.48" cy="533.96" fx="435.48" fy="533.96" r="247.71" gradientTransform="matrix(1, 0, 0, 1, 0, 0)" gradientUnits="userSpaceOnUse"><stop offset=".83" stop-color="#ff4f4a"/><stop offset=".84" stop-color="#ff6762"/><stop offset=".94" stop-color="#fff"/></radialGradient><filter id="drop-shadow-3" filterUnits="userSpaceOnUse"><feOffset dx="0" dy="8"/><feGaussianBlur result="blur-3" stdDeviation="29"/><feFlood flood-color="#000" flood-opacity=".56"/><feComposite in2="blur-3" operator="in"/><feComposite in="SourceGraphic"/></filter></defs><g id="Layer_2"><rect class="cls-4" x="15.5" y="12.5" width="949" height="949" rx="193.29" ry="193.29" transform="translate(977 -3) rotate(90)"/></g><g id="Layer_3"><g><circle class="cls-1" cx="645.82" cy="338.73" r="146.41"/><g><path class="cls-3" d="M667.3,240.56c4.87-.58,9.82-.02,14.67,1.26,11.33,2.98,21.95,7.62,31.74,14.07,10.9,7.18,20.03,16.08,26.3,27.67,3.28,6.08,5.79,12.4,4.82,19.52-.7,5.09-2.94,9.24-7.84,11.48-4.31,1.97-9.11,.45-11.89-3.5-1.69-2.41-2.52-5.16-3.36-7.88-4.08-13.26-12.04-23.79-22.63-32.49-8.88-7.3-18.98-12.36-29.78-16.13-1.63-.57-3.18-1.28-4.54-2.33-2.33-1.79-3.67-4.07-2.98-7.12,.64-2.81,2.86-3.81,5.5-4.54Z"/><path class="cls-3" d="M644.77,234.28c4.64-1.04,9.17,1.84,10.26,6.51,1,4.3-1.76,8.46-6.33,9.48-4.29,.95-9.24-1.13-10.57-6.68-1.01-4.19,2.01-8.27,6.64-9.31Z"/></g><circle class="cls-2" cx="435.48" cy="533.96" r="247.71"/><g><path class="cls-3" d="M473.05,362.25c8.51-1.01,17.17-.04,25.65,2.2,19.81,5.22,38.4,13.34,55.52,24.61,19.06,12.55,35.04,28.12,45.99,48.4,5.74,10.63,10.13,21.69,8.42,34.15-1.22,8.91-5.14,16.15-13.71,20.07-7.54,3.45-15.94,.8-20.8-6.13-2.96-4.22-4.41-9.03-5.87-13.78-7.14-23.2-21.06-41.61-39.58-56.83-15.53-12.77-33.2-21.62-52.09-28.21-2.85-1-5.56-2.25-7.95-4.08-4.08-3.14-6.42-7.13-5.21-12.45,1.11-4.91,5-6.67,9.62-7.93Z"/><path class="cls-3" d="M433.65,351.27c8.12-1.81,16.04,3.22,17.94,11.39,1.75,7.52-3.08,14.8-11.07,16.58-7.5,1.67-16.16-1.98-18.49-11.69-1.76-7.33,3.51-14.47,11.61-16.28Z"/></g></g></g></svg>