<svg version="1.2" preserveAspectRatio="none" xmlns="http://www.w3.org/2000/svg" viewBox="0 0 1170 2532" width="1170" height="2532"><style>.a{fill:#ff3a66}.b{fill:#ff6339}</style><path class="a" d="m0 399.6c0 0 112.9-1.9 287.8-72.7 0 0 155.4-63.7 342.3-15.3 0 0 52.7 25 283.6 33.1 0 0 114.8 4.2 259.3-37.4l-3 163.7c0 0-154.9-10.1-259-31 0 0-169.3-32.2-281.3-12.6 0 0-70.6-7.1-263.9 111 0 0-178.8 100.2-365.8 106.5z"/><path class="b" d="m1170 0v308c-144.4 41.7-254.4 37.1-254.4 37.1-230.9-8-285.1-32.4-285.1-32.4-186.9-48.4-341.5 13.2-341.5 13.2-174.9 70.8-289 74-289 74v-399.9c187-6.3 1170 0 1170 0z"/></svg>