<svg version="1.2" xmlns="http://www.w3.org/2000/svg" viewBox="0 0 490 490" width="490" height="490"><style>.a{fill:none;stroke:#fff;stroke-width:27}.b{fill:#fff}</style><path fill-rule="evenodd" class="a" d="m218 391c-68.6 0-124-55.4-124-124 0-25.2 7.5-48.6 20.3-68.1 22.2-33.7 60.3-55.9 103.7-55.9 68.6 0 124 55.4 124 124 0 68.6-55.4 124-124 124z"/><path class="b" d="m218.2 190.1c-4.1 0-7.9-3.3-7.9-7.4 0-4.2 4.1-7.7 8.3-7.7 4.1 0 7.4 3.7 7.4 7.8 0 4.2-3.6 7.3-7.8 7.3z"/><path class="b" d="m238 181c0 0 5-1 14 1 0 0 39.5 11.8 50 36 0 0 5.9 15.7 2 24 0 0-6 7.2-13.2 4.9 0 0-5.8-1.9-9-15.9 0 0-1.5-14.5-42-36.2 0 0-9.1-2.6-8.9-8.4 0 0-0.4-3.4 7.1-5.4z"/><path class="b" d="m246 132c20.3-38.5 50-44 50-44 30.3-9 59 2 59 2 29.4 11.2 43 37.6 43 37.6 18.4 33.7 7 66 7 66-11.7 42.4-50 56.4-50 56.4l-6-26c41.8-25 34-64 34-64-3.7-24.5-25-39-25-39-17.9-16.3-43-11-43-11-32.8 4.2-43 30-43 30z"/><path class="b" d="m323 126c-2.8 0-5-2.2-5-5 0-2.8 2.2-5 5-5 2.8 0 5 2.2 5 5 0 2.8-2.2 5-5 5z"/><path class="b" d="m340 120c0 0 12.4 3.1 21 11.1 0 0 12.1 9.7 11.9 19.8 0 0 0.1 6.6-5.8 7 0 0-5.2 0.9-7.2-7 0 0-6.5-17.1-21-21.8 0 0-10-2.4-8.9-6.1 0 0 1-4.6 10-3z"/><path class="b" d="m530 267"/></svg>