<svg version="1.2" xmlns="http://www.w3.org/2000/svg" viewBox="0 0 1170 2532" width="500" height="1082"><style>.a{fill:#ff3a66}.b{fill:#ff6339}</style><path class="a" d="m0 168c0 0 50.2-6.7 108.3-33.6 0 0 179.8-92.9 468.7 45.6 0 0 118.7 46.9 255.6 76.9 0 0 127.9 29.1 337.4-12.8v437.2c0 0-108.7-83.2-172.7-158.1 0 0-146-166.7-281-190.1 0 0-112.1-34.8-333.3 85.9 0 0-211.1 125.8-383 114.5z"/><path class="b" d="m1170 0v244c0 0-182.5 34.5-293 20 0 0-131.3-13.3-299.2-81.9 0 0-240.5-131.3-454.4-52.5 0 0-82 38-123.4 38.4v-168z"/></svg>