<svg version="1.2" xmlns="http://www.w3.org/2000/svg" viewBox="0 0 1170 2532" width="500" height="1082"><style>.a{fill:#ff3a66}.b{fill:#ff6339}</style><path class="a" d="m0 311c0 0 11.4-8.4 104.6-38.7 0 0 132.3-49.8 297.4-6.4 0 0 142.6 25.6 326.4 13.7 0 0 178.9-9.2 441.6-106.6v360c0 0-70.3 21.4-236.7-31.2 0 0-134.4-66.4-277.5-131.8 0 0-178.3-75.1-368.8 1.1 0 0-168.9 81.1-287 94.4z"/><path class="b" d="m0 0h1170v173.3c0 0-92.3 40.7-196.2 63.3 0 0-201.9 51.7-314.8 46.4 0 0-153.7 4-260.2-17.7 0 0-93.1-21-197.9-12.1 0 0-44.5-3.5-200.9 57.7z"/></svg>